<?xml version="1.0" encoding="UTF-8"?>
<svg xmlns="http://www.w3.org/2000/svg" xmlns:xlink="http://www.w3.org/1999/xlink" width="20pt" height="20pt" viewBox="0 0 20 20" version="1.1">
<g id="surface1">
<path style=" stroke:none;fill-rule:nonzero;fill:#C0C0C0;fill-opacity:1;" d="M 2 1.601563 C 1.339844 1.601563 0.800781 2.140625 0.800781 2.800781 L 0.800781 17.199219 C 0.800781 17.859375 1.339844 18.398438 2 18.398438 L 18 18.398438 C 18.65625 18.398438 19.199219 17.859375 19.199219 17.199219 L 19.199219 4.398438 C 19.199219 3.742188 18.65625 3.199219 18 3.199219 L 7.199219 3.199219 C 7.234375 3.199219 7.1875 3.199219 7.089844 3.085938 C 6.992188 2.976563 6.871094 2.789063 6.746094 2.585938 C 6.621094 2.386719 6.488281 2.171875 6.324219 1.984375 C 6.15625 1.796875 5.925781 1.601563 5.601563 1.601563 Z M 2 2.398438 L 5.601563 2.398438 C 5.574219 2.398438 5.625 2.402344 5.722656 2.515625 C 5.824219 2.625 5.941406 2.8125 6.066406 3.011719 C 6.191406 3.210938 6.324219 3.425781 6.484375 3.613281 C 6.648438 3.800781 6.871094 4 7.199219 4 L 18 4 C 18.226563 4 18.398438 4.175781 18.398438 4.398438 L 18.398438 5.273438 C 18.273438 5.230469 18.140625 5.199219 18 5.199219 L 2 5.199219 C 1.859375 5.199219 1.726563 5.230469 1.601563 5.273438 L 1.601563 2.800781 C 1.601563 2.574219 1.773438 2.398438 2 2.398438 Z M 2 6 L 18 6 C 18.226563 6 18.398438 6.175781 18.398438 6.398438 L 18.398438 17.199219 C 18.398438 17.425781 18.226563 17.601563 18 17.601563 L 2 17.601563 C 1.773438 17.601563 1.601563 17.425781 1.601563 17.199219 L 1.601563 6.398438 C 1.601563 6.175781 1.773438 6 2 6 Z "/>
</g>
</svg>
