<?xml version="1.0" encoding="UTF-8"?>
<svg xmlns="http://www.w3.org/2000/svg" xmlns:xlink="http://www.w3.org/1999/xlink" width="20pt" height="20pt" viewBox="0 0 20 20" version="1.1">
<g id="surface1">
<path style=" stroke:none;fill-rule:nonzero;fill:#4CAF50;fill-opacity:1;" d="M 17.082031 4.167969 L 10.417969 4.167969 L 10.417969 15.832031 L 17.082031 15.832031 C 17.3125 15.832031 17.5 15.648438 17.5 15.417969 L 17.5 4.582031 C 17.5 4.351563 17.3125 4.167969 17.082031 4.167969 Z "/>
<path style=" stroke:none;fill-rule:nonzero;fill:#FFFFFF;fill-opacity:1;" d="M 13.332031 6.25 L 16.25 6.25 L 16.25 7.5 L 13.332031 7.5 Z "/>
<path style=" stroke:none;fill-rule:nonzero;fill:#FFFFFF;fill-opacity:1;" d="M 13.332031 10.417969 L 16.25 10.417969 L 16.25 11.667969 L 13.332031 11.667969 Z "/>
<path style=" stroke:none;fill-rule:nonzero;fill:#FFFFFF;fill-opacity:1;" d="M 13.332031 12.5 L 16.25 12.5 L 16.25 13.75 L 13.332031 13.75 Z "/>
<path style=" stroke:none;fill-rule:nonzero;fill:#FFFFFF;fill-opacity:1;" d="M 13.332031 8.332031 L 16.25 8.332031 L 16.25 9.582031 L 13.332031 9.582031 Z "/>
<path style=" stroke:none;fill-rule:nonzero;fill:#FFFFFF;fill-opacity:1;" d="M 10.417969 6.25 L 12.5 6.25 L 12.5 7.5 L 10.417969 7.5 Z "/>
<path style=" stroke:none;fill-rule:nonzero;fill:#FFFFFF;fill-opacity:1;" d="M 10.417969 10.417969 L 12.5 10.417969 L 12.5 11.667969 L 10.417969 11.667969 Z "/>
<path style=" stroke:none;fill-rule:nonzero;fill:#FFFFFF;fill-opacity:1;" d="M 10.417969 12.5 L 12.5 12.5 L 12.5 13.75 L 10.417969 13.75 Z "/>
<path style=" stroke:none;fill-rule:nonzero;fill:#FFFFFF;fill-opacity:1;" d="M 10.417969 8.332031 L 12.5 8.332031 L 12.5 9.582031 L 10.417969 9.582031 Z "/>
<path style=" stroke:none;fill-rule:nonzero;fill:#2E7D32;fill-opacity:1;" d="M 11.25 17.5 L 2.5 15.832031 L 2.5 4.167969 L 11.25 2.5 Z "/>
<path style=" stroke:none;fill-rule:nonzero;fill:#FFFFFF;fill-opacity:1;" d="M 7.96875 12.917969 L 6.964844 11.015625 C 6.925781 10.945313 6.886719 10.816406 6.847656 10.625 L 6.832031 10.625 C 6.8125 10.714844 6.769531 10.851563 6.695313 11.035156 L 5.6875 12.917969 L 4.121094 12.917969 L 5.980469 10 L 4.28125 7.082031 L 5.878906 7.082031 L 6.714844 8.832031 C 6.777344 8.96875 6.835938 9.132813 6.886719 9.324219 L 6.90625 9.324219 C 6.9375 9.210938 7 9.039063 7.089844 8.816406 L 8.015625 7.082031 L 9.480469 7.082031 L 7.730469 9.972656 L 9.527344 12.914063 L 7.96875 12.914063 Z "/>
</g>
</svg>
