<?xml version="1.0" encoding="UTF-8"?>
<svg xmlns="http://www.w3.org/2000/svg" xmlns:xlink="http://www.w3.org/1999/xlink" width="20pt" height="20pt" viewBox="0 0 20 20" version="1.1">
<g id="surface1">
<path style=" stroke:none;fill-rule:nonzero;fill:#71F218;fill-opacity:1;" d="M 3.125 2.5 C 2.09375 2.5 1.25 3.34375 1.25 4.375 L 1.25 15.625 C 1.25 16.65625 2.09375 17.5 3.125 17.5 L 16.875 17.5 C 17.90625 17.5 18.75 16.65625 18.75 15.625 L 18.75 4.375 C 18.75 3.34375 17.90625 2.5 16.875 2.5 Z M 3.125 3.75 L 16.875 3.75 C 17.226563 3.75 17.5 4.023438 17.5 4.375 L 17.5 13.457031 L 13.121094 8.832031 L 10.679688 11.582031 L 6.914063 7.613281 L 2.5 12.582031 L 2.5 4.375 C 2.5 4.023438 2.773438 3.75 3.125 3.75 Z M 13.75 5 C 13.0625 5 12.5 5.5625 12.5 6.25 C 12.5 6.9375 13.0625 7.5 13.75 7.5 C 14.4375 7.5 15 6.9375 15 6.25 C 15 5.5625 14.4375 5 13.75 5 Z M 6.945313 9.457031 L 13.382813 16.25 L 3.125 16.25 C 2.773438 16.25 2.5 15.976563 2.5 15.625 L 2.5 14.46875 Z M 13.144531 10.683594 L 17.5 15.273438 L 17.5 15.625 C 17.5 15.976563 17.226563 16.25 16.875 16.25 L 15.101563 16.25 L 11.542969 12.492188 Z "/>
</g>
</svg>
